{
  "accessors": [
    {
      "bufferView": 1,
      "componentType": 5126,
      "count": 40060,
      "max": [
        0.9773799777030945,
        0.9874299764633179,
        0.9874299764633179
      ],
      "min": [
        -0.9773799777030945,
        -0.9874299764633179,
        -0.9874299764633179
      ],
      "type": "VEC3"
    },
    {
      "bufferView": 1,
      "byteOffset": 480720,
      "componentType": 5126,
      "count": 40060,
      "max": [
        1.0,
        1.0,
        1.0
      ],
      "min": [
        -1.0,
        -1.0,
        -1.0
      ],
      "type": "VEC3"
    },
    {
      "bufferView": 0,
      "componentType": 5125,
      "count": 235008,
      "type": "SCALAR"
    },
    {
      "bufferView": 1,
      "byteOffset": 961440,
      "componentType": 5126,
      "count": 15264,
      "max": [
        0.8545600175857544,
        0.7043200135231018,
        0.7043200135231018
      ],
      "min": [
        -0.8545600175857544,
        -0.8500099778175354,
        -0.7043200135231018
      ],
      "type": "VEC3"
    },
    {
      "bufferView": 1,
      "byteOffset": 1144608,
      "componentType": 5126,
      "count": 15264,
      "max": [
        1.0,
        1.0,
        1.0
      ],
      "min": [
        -1.0,
        -1.0,
        -1.0
      ],
      "type": "VEC3"
    },
    {
      "bufferView": 0,
      "byteOffset": 940032,
      "componentType": 5125,
      "count": 81408,
      "type": "SCALAR"
    },
    {
      "bufferView": 1,
      "byteOffset": 1327776,
      "componentType": 5126,
      "count": 27174,
      "max": [
        0.9560099840164185,
        0.802299976348877,
        0.802299976348877
      ],
      "min": [
        -0.9560099840164185,
        -0.9326199889183044,
        -0.802299976348877
      ],
      "type": "VEC3"
    },
    {
      "bufferView": 1,
      "byteOffset": 1653864,
      "componentType": 5126,
      "count": 27174,
      "max": [
        1.0,
        1.0,
        1.0
      ],
      "min": [
        -1.0,
        -1.0,
        -1.0
      ],
      "type": "VEC3"
    },
    {
      "bufferView": 0,
      "byteOffset": 1265664,
      "componentType": 5125,
      "count": 147456,
      "type": "SCALAR"
    }
  ],
  "asset": {
    "extras": {
      "author": "Robin Butler (https://sketchfab.com/StarTrekGuy)",
      "license": "CC-BY-NC-4.0 (http://creativecommons.org/licenses/by-nc/4.0/)",
      "source": "https://sketchfab.com/3d-models/robobit-dex-3b5d15acb0de42f685d71686c651dcd8",
      "title": "RoboBit - Dex"
    },
    "generator": "Sketchfab-12.68.0",
    "version": "2.0"
  },
  "bufferViews": [
    {
      "buffer": 0,
      "byteLength": 1855488,
      "name": "floatBufferViews",
      "target": 34963
    },
    {
      "buffer": 0,
      "byteLength": 1979952,
      "byteOffset": 1855488,
      "byteStride": 12,
      "name": "floatBufferViews",
      "target": 34962
    }
  ],
  "buffers": [
    {
      "byteLength": 3835440,
      "uri": "../Textures/Bot-Textures/bot-scene.bin"
    }
  ],
  "materials": [
    {
      "doubleSided": true,
      "name": "Material.001",
      "pbrMetallicRoughness": {
        "metallicFactor": 0.0,
        "roughnessFactor": 0.0
      }
    },
    {
      "doubleSided": true,
      "emissiveFactor": [
        0.0,
        1.0,
        1.0
      ],
      "name": "Material.002",
      "pbrMetallicRoughness": {
        "baseColorFactor": [
          0.0729708225,
          0.5677907467,
          0.8000000715,
          1.0
        ],
        "roughnessFactor": 0.0
      }
    },
    {
      "doubleSided": true,
      "name": "Material.003",
      "pbrMetallicRoughness": {
        "baseColorFactor": [
          0.0155131787,
          0.0157787126,
          0.0177319703,
          1.0
        ],
        "roughnessFactor": 0.1480564024
      }
    }
  ],
  "meshes": [
    {
      "name": "Sphere_0",
      "primitives": [
        {
          "attributes": {
            "NORMAL": 1,
            "POSITION": 0
          },
          "indices": 2,
          "material": 0,
          "mode": 4
        }
      ]
    },
    {
      "name": "Sphere_1",
      "primitives": [
        {
          "attributes": {
            "NORMAL": 4,
            "POSITION": 3
          },
          "indices": 5,
          "material": 1,
          "mode": 4
        }
      ]
    },
    {
      "name": "Sphere_2",
      "primitives": [
        {
          "attributes": {
            "NORMAL": 7,
            "POSITION": 6
          },
          "indices": 8,
          "material": 2,
          "mode": 4
        }
      ]
    }
  ],
  "nodes": [
    {
      "children": [
        1
      ],
      "matrix": [
        0.7167442440986633,
        0.0,
        0.0,
        0.0,
        0.0,
        1.591491925131779e-16,
        -0.7167442440986633,
        0.0,
        0.0,
        0.7167442440986633,
        1.591491925131779e-16,
        0.0,
        0.0,
        0.0,
        0.0,
        1.0
      ],
      "name": "Sketchfab_model"
    },
    {
      "children": [
        2,
        4,
        6
      ],
      "name": "Root"
    },
    {
      "children": [
        3
      ],
      "matrix": [
        0.5378900000000001,
        0.54476,
        -0.64336,
        0.0,
        0.77724,
        -0.6159900000000001,
        0.12824000000000002,
        0.0,
        -0.32644000000000006,
        -0.5690200000000001,
        -0.7547500000000001,
        0.0,
        -2.0624599999999997,
        -4.167229999999999,
        3.01819,
        1.0
      ],
      "name": "Lamp.001"
    },
    {
      "name": "Lamp.001"
    },
    {
      "children": [
        5
      ],
      "matrix": [
        -0.29086000000000006,
        0.9551700000000001,
        -0.05519000000000001,
        0.0,
        -0.7711,
        -0.19988000000000003,
        0.6045200000000001,
        0.0,
        0.5663900000000001,
        0.21839000000000003,
        0.7946700000000001,
        0.0,
        4.076250000000001,
        1.00545,
        5.903860000000001,
        1.0
      ],
      "name": "Lamp"
    },
    {
      "name": "Lamp"
    },
    {
      "children": [
        7,
        8,
        9
      ],
      "name": "Sphere"
    },
    {
      "mesh": 0,
      "name": "Sphere_0"
    },
    {
      "mesh": 1,
      "name": "Sphere_1"
    },
    {
      "mesh": 2,
      "name": "Sphere_2"
    }
  ],
  "scene": 0,
  "scenes": [
    {
      "name": "Sketchfab_Scene",
      "nodes": [
        0
      ]
    }
  ]
}
